<?xml version="1.0" encoding="UTF-8"?>
<svg width="432px" height="220px" viewBox="0 0 432 220" version="1.1" xmlns="http://www.w3.org/2000/svg" xmlns:xlink="http://www.w3.org/1999/xlink">
    <!-- Generator: Sketch 48.2 (47327) - http://www.bohemiancoding.com/sketch -->
    <title>Group 12</title>
    <desc>Created with Sketch.</desc>
    <defs>
        <polygon id="path-1" points="0 0.147327306 60.52725 0.147327306 60.52725 66.1518987 0 66.1518987"></polygon>
        <polygon id="path-3" points="0.788836336 0.372319048 13.5226 0.372319048 13.5226 23.8609381 0.788836336 23.8609381"></polygon>
        <polygon id="path-5" points="0.186 0.7162375 11.5128571 0.7162375 11.5128571 10.8609875 0.186 10.8609875"></polygon>
        <polygon id="path-7" points="0.141694023 0.667425 38.6529422 0.667425 38.6529422 11 0.141694023 11"></polygon>
        <polygon id="path-9" points="0.909688889 0.7636 12.8501333 0.7636 12.8501333 22.8158467 0.909688889 22.8158467"></polygon>
        <polygon id="path-11" points="0 0.148917778 69.2562889 0.148917778 69.2562889 10.9996857 0 10.9996857"></polygon>
        <polygon id="path-13" points="0 0.399598788 21.7119571 0.399598788 21.7119571 5 0 5"></polygon>
        <polygon id="path-15" points="0 51 72 51 72 0 0 0"></polygon>
        <filter x="-66.7%" y="-26.9%" width="233.3%" height="180.8%" filterUnits="objectBoundingBox" id="filter-17">
            <feOffset dx="0" dy="3" in="SourceAlpha" result="shadowOffsetOuter1"></feOffset>
            <feGaussianBlur stdDeviation="2.5" in="shadowOffsetOuter1" result="shadowBlurOuter1"></feGaussianBlur>
            <feColorMatrix values="0 0 0 0 0   0 0 0 0 0   0 0 0 0 0  0 0 0 0.300158514 0" type="matrix" in="shadowBlurOuter1" result="shadowMatrixOuter1"></feColorMatrix>
            <feMerge>
                <feMergeNode in="shadowMatrixOuter1"></feMergeNode>
                <feMergeNode in="SourceGraphic"></feMergeNode>
            </feMerge>
        </filter>
    </defs>
    <g id="Desktop" stroke="none" stroke-width="1" fill="none" fill-rule="evenodd" transform="translate(-107.000000, -681.000000)">
        <g id="Group-12" transform="translate(106.000000, 681.000000)">
            <rect id="Rectangle" stroke="#88D4F4" stroke-width="2" x="152" y="1" width="129" height="130" rx="7"></rect>
            <g id="Page-1" transform="translate(186.000000, 34.000000)">
                <g id="Group-3">
                    <mask id="mask-2" fill="white">
                        <use xlink:href="#path-1"></use>
                    </mask>
                    <g id="Clip-2"></g>
                    <path d="M55.6281182,4.57001098 C54.7297545,2.22501098 52.5046409,0.629317102 49.9662091,0.507623224 L42.8319818,0.164419142 C41.6147545,0.105623224 40.3961409,0.194500775 39.2010955,0.429684448 L13.5741636,5.45741914 C12.3791182,5.69123547 11.2173455,6.06999057 10.1165727,6.58274567 L3.65750455,9.59227629 C1.35891364,10.6629089 -0.0759727273,12.97646 0.00305,15.4828069 L0.423118182,28.7556436 C0.455004545,29.766113 1.21334545,30.6111334 2.22816364,30.7642763 L12.7908682,32.3654396 L19.4343227,65.3061947 C19.5480045,65.875011 20.1094818,66.2441947 20.6848227,66.1320722 L56.1729591,59.1695416 C56.7496864,59.0560518 57.1240045,58.5036436 57.0089364,57.9348273 L50.3654818,24.9940722 L59.5030045,19.5287865 C60.3805727,19.0037253 60.7535045,17.9371947 60.3902773,16.9909906 L55.6281182,4.57001098 Z" id="Fill-1" fill="#FC7A51" mask="url(#mask-2)"></path>
                </g>
                <path d="M40.7297493,1 C40.4705001,1.03853067 40.2112509,1.08134253 39.954835,1.13271676 L13.7664143,6.38002369 C13.5085818,6.43139792 13.2535826,6.49133452 13,6.55697937 C14.5328287,14.2574059 21.9688895,19.256404 29.6188663,17.7237394 C37.2688432,16.1910748 42.2399114,8.70613473 40.7297493,1" id="Fill-4" fill="#CC6144"></path>
                <path d="M7.43795909,17.1525937 L0.93035714,13 C0.300452836,14.0011438 -0.0363416347,15.1691449 0.0031154581,16.3855884 L0.43009757,29.4475543 C0.462508753,30.44197 1.23333125,31.2735652 2.2634432,31.424275 L13,33 L10.6579397,21.75328 C10.2661871,19.8734441 9.10783963,18.2183274 7.43795909,17.1525937" id="Fill-6" fill="#F9977D"></path>
                <path d="M37.79429,2 C38.9364085,7.89147421 35.2076057,13.617171 29.4652495,14.7889481 C23.7228933,15.9607252 18.1421185,12.1350926 17,6.24361839" id="Fill-8" fill="#B2533D"></path>
                <path d="M0,28 L0.0682198194,30.2903981 C0.0989856203,31.3302108 0.830676625,32.1971897 1.80849404,32.3559719 L12,34 L11.1987515,29.7690867 L0,28 Z" id="Fill-10" fill="#CC6144"></path>
                <path d="M9.02384596,22.0202417 C8.33464593,22.1323076 7.8873286,22.677785 8.02483726,23.2394647 L10.3260364,32.6651525 L13,33 L10.5198739,22.8344073 C10.3823653,22.2727275 9.713046,21.9081758 9.02384596,22.0202417" id="Fill-12" fill="#FC7A51"></path>
                <polygon id="Fill-14" fill="#B2533D" points="10.0808857 32.6189305 13 33 11.9173068 28.37185 9 28"></polygon>
                <g id="Group-18" transform="translate(47.000000, 2.000000)">
                    <mask id="mask-4" fill="white">
                        <use xlink:href="#path-3"></use>
                    </mask>
                    <g id="Clip-17"></g>
                    <path d="M2.05632,6.74955714 L6.37672,0.372319048 C7.35252,1.08489048 8.12812,2.06536667 8.57472,3.23365238 L13.38372,15.7782238 C13.75052,16.7338429 13.37392,17.8109857 12.48772,18.3412714 L3.26032,23.8609381 L0.93352,12.320319 C0.54432,10.3897476 0.94752,8.38598571 2.05632,6.74955714" id="Fill-16" fill="#F9977D" mask="url(#mask-4)"></path>
                </g>
                <g id="Group-21" transform="translate(49.000000, 15.000000)">
                    <mask id="mask-6" fill="white">
                        <use xlink:href="#path-5"></use>
                    </mask>
                    <g id="Clip-20"></g>
                    <path d="M10.5474286,0.7162375 L11.3717143,2.8131125 C11.7445714,3.7646125 11.3602857,4.8384875 10.4574286,5.3651125 L1.04171429,10.8609875 L0.186,6.7208625 L10.5474286,0.7162375 Z" id="Fill-19" fill="#CC6144" mask="url(#mask-6)"></path>
                </g>
                <path d="M49.0622095,14.0213001 C49.7772339,13.9033744 50.4716326,14.2869883 50.6142937,14.8780379 L53,24.7965889 L50.6005432,26 L48.0257679,15.3042756 C47.8831068,14.713226 48.3471851,14.1392259 49.0622095,14.0213001" id="Fill-22" fill="#FC7A51"></path>
                <polygon id="Fill-24" fill="#B2533D" points="53 24.6810278 50.9003006 26 50 21.3111861 52.1012024 20"></polygon>
                <g id="Group-28" transform="translate(18.000000, 56.000000)">
                    <mask id="mask-8" fill="white">
                        <use xlink:href="#path-7"></use>
                    </mask>
                    <g id="Clip-27"></g>
                    <path d="M37.7849124,3.978425 L1.83142506,10.979925 C1.24711241,11.092675 0.679654943,10.721425 0.563073333,10.1508 L0.141694023,8.08005 L38.2119101,0.667425 L38.6318848,2.7368 C38.7484664,3.3088 38.3692251,3.8643 37.7849124,3.978425" id="Fill-26" fill="#CC6144" mask="url(#mask-8)"></path>
                </g>
                <path d="M29.1845498,8.13745539 L25.2109851,8.97943065 C24.6646364,9.09469271 24.1275256,8.71376567 24.0193116,8.13183285 C23.9110976,7.54990004 24.2687316,6.9792123 24.8150803,6.86254461 L28.788645,6.02056935 C29.3363134,5.90530729 29.8721046,6.28623433 29.9803185,6.86816715 C30.0898522,7.45009996 29.7308985,8.02219334 29.1845498,8.13745539" id="Fill-29" fill="#F9977D"></path>
            </g>
            <text id="Letree-T-Shirt" opacity="0.5" font-family="Roboto-Medium, Roboto" font-size="18" font-weight="400" fill="#A9A9A9">
                <tspan x="153.890625" y="157">Letree T-Shirt</tspan>
            </text>
            <text id="Get-by-23-Nov,Friday" font-family="Roboto-Bold, Roboto" font-size="13" font-weight="bold" fill="#78C6F4">
                <tspan x="153" y="202">Get by 23 Nov,Friday. </tspan>
                <tspan x="153" y="217">Order in 2hr 23min </tspan>
            </text>
            <text id="$23" opacity="0.200000003" font-family="Roboto-Medium, Roboto" font-size="22" font-weight="400" fill="#A9A9A9">
                <tspan x="153.488281" y="183">$23</tspan>
            </text>
            <g id="Group-11" opacity="0.368376359" transform="translate(301.000000, 0.000000)">
                <text id="$23" opacity="0.451879529" font-family="Roboto-Medium, Roboto" font-size="22" font-weight="400" fill="#A9A9A9">
                    <tspan x="1.48828125" y="183">$23</tspan>
                </text>
                <g id="Group-9">
                    <rect id="Rectangle-Copy-2" stroke="#E3E3E3" stroke-width="2" x="2" y="1" width="129" height="130" rx="7"></rect>
                    <g id="Page-1" transform="translate(35.000000, 41.000000)">
                        <g id="Group-3" transform="translate(22.000000, 0.000000)">
                            <mask id="mask-10" fill="white">
                                <use xlink:href="#path-9"></use>
                            </mask>
                            <g id="Clip-2"></g>
                            <path d="M12.8501333,22.8158467 L8.32035556,1.60831333 C8.18502222,0.975046667 7.51302222,0.602446667 6.89857778,0.830913333 C5.32746667,1.41511333 2.55235556,2.73071333 0.909688889,5.16104667 L3.29746667,18.10698 L12.8501333,22.8158467 Z" id="Fill-1" fill="#DCB991" mask="url(#mask-10)"></path>
                        </g>
                        <path d="M67.3516028,35.9459749 C67.0523426,33.529867 65.0183083,31.7107169 62.6024054,31.7217135 C58.4844601,31.7421357 50.6787559,31.3384038 44.0716512,29.1186636 L26.1253897,14.6471512 L20.1417438,5 L10.8475318,8.12303153 C9.87181873,8.45135829 8.8493463,8.61787808 7.82063928,8.61787808 L4.5880054,8.61787808 C2.60696506,8.61787808 1,10.2375187 1,12.2357562 L1,41.1772099 L56.0358256,46 L68,41.1772099 L67.3516028,35.9459749 Z" id="Fill-4" fill="#F09846"></path>
                        <path d="M22,23 L22,8.83949974 L19.6670044,5 L10.6040385,8.10630537 C9.651082,8.43303804 8.65556923,8.60031266 7.65245712,8.60031266 L4.50025331,8.60031266 C2.5669827,8.60031266 1,10.2120896 1,12.2006253 L1,23 L22,23 Z" id="Fill-6" fill="#AA6455"></path>
                        <path d="M17.4358399,5.76446066 L18.5954983,11.7285044 C18.7338062,12.4366858 18.5575016,13.1636269 18.1121806,13.7217301 C17.6668597,14.2798332 17.0102772,14.6003127 16.3080987,14.6003127 L8.00050662,14.6003127 C5.21155099,14.6003127 2.71137005,15.8697238 1,17.870766 L1,23 L22,23 L22,8.83949974 L19.6670044,5 L17.4358399,5.76446066 Z" id="Fill-8" fill="#9B5A50"></path>
                        <path d="M21.3859345,40 C27.3814301,32.8475506 36.6995986,33.0416574 40.192545,33.6829865 C41.170445,33.8631177 42.1514692,33.409684 42.6638513,32.5618253 L44.8289782,28.9731777 C45.138282,28.4622885 45.0179972,27.8023252 44.549355,27.42964 L27.3814301,13.7769402 L25.8552187,7.70993635 C25.3740794,5.79371347 23.4214037,4.62907234 21.4937222,5.10735163 L20.1862106,5.43189829 L21.4374852,11.6495291 C22.0310986,14.5999533 19.7613083,17.3516121 16.7338799,17.3516121 L8.1952195,17.3516121 C4.22269601,17.3516121 1,20.5535988 1,24.5040615 L1,38.8074075 L21.3859345,40 Z" id="Fill-10" fill="#DC8C46"></path>
                        <g id="Group-14" transform="translate(0.000000, 37.000000)">
                            <mask id="mask-12" fill="white">
                                <use xlink:href="#path-11"></use>
                            </mask>
                            <g id="Clip-13"></g>
                            <path d="M50.1509556,4.96854286 C32.6027333,4.96854286 20.6187333,0.335971429 1.21162222,0.148971429 C0.5474,0.142685714 -0.000155555556,0.689542857 -0.000155555556,1.36054286 L-0.000155555556,9.7944 C-0.000155555556,10.4591143 0.534955556,10.9996857 1.19451111,10.9996857 L20.2982889,10.9996857 C20.9594,10.9996857 21.4929556,10.4591143 21.4929556,9.7944 L21.4929556,7.92125714 C30.9258444,9.30254286 39.5218444,10.9996857 50.1509556,10.9996857 C59.6631778,10.9996857 66.1436222,9.46911429 68.3867333,8.84682857 C68.9031778,8.70225714 69.2562889,8.22611429 69.2562889,7.68554286 L69.2562889,4.14982857 C69.2562889,3.36254286 68.5298444,2.78268571 67.7754,2.97911429 C65.0998444,3.67054286 58.9102889,4.96854286 50.1509556,4.96854286" id="Fill-12" fill="#EBC9A0" mask="url(#mask-12)"></path>
                        </g>
                        <path d="M34.2494911,25 C33.9302988,25 33.6094781,24.8778601 33.3651983,24.6335803 C32.8782672,24.1450208 32.8782672,23.3551828 33.3651983,22.8666232 L35.8666232,20.3651983 C36.3535543,19.8782672 37.1450208,19.8782672 37.6335803,20.3651983 C38.1221399,20.8537578 38.1221399,21.6452243 37.6335803,22.1337839 L35.1337839,24.6335803 C34.8895041,24.8778601 34.5703119,25 34.2494911,25" id="Fill-15" fill="#AA6455"></path>
                        <path d="M40.2494911,30 C39.9302988,30 39.6094781,29.8778601 39.3651983,29.6335803 C38.8782672,29.1450208 38.8782672,28.3535543 39.3651983,27.8666232 L41.8666232,25.3651983 C42.3535543,24.8782672 43.1450208,24.8782672 43.6335803,25.3651983 C44.1221399,25.8537578 44.1221399,26.6452243 43.6335803,27.1337839 L41.1337839,29.6335803 C40.8895041,29.8778601 40.5686833,30 40.2494911,30" id="Fill-17" fill="#AA6455"></path>
                        <path d="M37.2494911,27 C36.9302988,27 36.6094781,26.8778601 36.3651983,26.6335803 C35.8782672,26.1450208 35.8782672,25.3551828 36.3651983,24.8666232 L38.8649947,22.3651983 C39.3535543,21.8782672 40.1450208,21.8782672 40.6335803,22.3651983 C41.1221399,22.8537578 41.1221399,23.6452243 40.6335803,24.1337839 L38.1337839,26.6335803 C37.8895041,26.8778601 37.5686833,27 37.2494911,27" id="Fill-19" fill="#AA6455"></path>
                        <path d="M31.250407,22 C30.9296646,22 30.6105503,21.8778601 30.3663302,21.6335803 C29.8778899,21.1450208 29.8778899,20.3551828 30.3663302,19.8666232 L32.8655161,17.3651983 C33.3539564,16.8782672 34.1452296,16.8782672 34.6336698,17.3651983 C35.1221101,17.8537578 35.1221101,18.6452243 34.6336698,19.1337839 L32.1344839,21.6335803 C31.8902638,21.8778601 31.5695213,22 31.250407,22" id="Fill-21" fill="#AA6455"></path>
                        <g id="Group-25" transform="translate(0.000000, 43.000000)">
                            <mask id="mask-14" fill="white">
                                <use xlink:href="#path-13"></use>
                            </mask>
                            <g id="Clip-24"></g>
                            <path d="M1.22367143,0.39965 C0.554242857,0.39365 -0.000471428571,0.91565 -0.000471428571,1.55465 L-0.000471428571,3.84815 C-0.000471428571,4.48415 0.5401,5.00015 1.20638571,5.00015 L20.5066714,5.00015 C21.1729571,5.00015 21.7119571,4.48415 21.7119571,3.84815 L21.7119571,2.05565 C15.5111,1.19915 8.95038571,0.47015 1.22367143,0.39965" id="Fill-23" fill="#DCB991" mask="url(#mask-14)"></path>
                        </g>
                    </g>
                    <text id="Delivery-in-2-5-Busi" font-family="Roboto-Light, Roboto" font-size="13" font-weight="300" fill="#515151">
                        <tspan x="1" y="202">Delivery in </tspan>
                        <tspan x="1" y="217">2-5 Business Days</tspan>
                    </text>
                    <text id="Rockland-boots" font-family="Roboto-Medium, Roboto" font-size="18" font-weight="400" fill="#A9A9A9">
                        <tspan x="0.80859375" y="157">Rockland boots</tspan>
                    </text>
                </g>
            </g>
            <g id="Group-8" opacity="0.368376359">
                <g id="Group-7">
                    <rect id="Rectangle-Copy" stroke="#E3E3E3" stroke-width="2" x="2" y="1" width="129" height="130" rx="7"></rect>
                    <g id="Page-1" transform="translate(33.000000, 40.000000)">
                        <path d="M55.6696948,14.5374795 L38.3574534,30.3431355 C37.4705225,31.1489461 36.3183259,31.5951657 35.1238171,31.5968002 L9.20590429,31.5935312 C8.53867183,31.5935312 7.99837627,32.1378211 8.00000367,32.8079679 L8.00163106,49.7871979 C8.00163106,50.4573446 8.54192662,51 9.20915909,51 L38.7366368,51 C42.2729688,51 45.6888736,49.7005691 48.3382747,47.346883 L68.701884,29.1679269 C72.796413,25.531155 73.1235197,19.2301412 69.4309575,15.1831087 C65.8002365,11.2047254 59.6535608,10.9170526 55.6696948,14.5374795" id="Fill-1" fill="#FC7A51"></path>
                        <path d="M8,33.1875 L8,49.8141004 C8,50.4686658 8.55929919,51 9.25,51 L18,51 L18,32 L9.25,32 C8.55929919,32 8,32.5313342 8,33.1875" id="Fill-3" fill="#FFDC64"></path>
                        <path d="M18,48 L18,50 L9.25,50 C8.55929919,50 8,49.5525606 8,49 L8,48 L18,48 Z" id="Fill-5" fill="#FFC850"></path>
                        <mask id="mask-16" fill="white">
                            <use xlink:href="#path-15"></use>
                        </mask>
                        <g id="Clip-8"></g>
                        <polygon id="Fill-7" fill="#FFC850" mask="url(#mask-16)" points="8 46 18 46 18 44 8 44"></polygon>
                        <path d="M55.1757459,14.5326829 L38.042891,30.3404181 C37.1651503,31.1463347 36.0248926,31.592613 34.8427611,31.5942477 L19.9485477,31.592613 L17.558516,31.592613 L9.19340529,31.592613 C8.53308657,31.592613 8,32.1353398 8,32.8055747 L8,41.2963065 L17.558516,41.2963065 L17.558516,51 L19.9501582,51 L19.9501582,41.2963065 L30.0530346,41.2963065 C34.1405685,41.2963065 38.0767123,39.7809218 41.1383363,37.0329587 L61.2957731,18.8483417 C63.1446655,17.187467 64.4185974,14.9985779 65,12.6020795 C61.7322276,11.3874831 57.9329792,12.0005028 55.1757459,14.5326829" id="Fill-9" fill="#CC6144" mask="url(#mask-16)"></path>
                        <path d="M45.2812896,40 C39.6035139,40 35,44.6516921 35,50.3888889 C35,50.5964361 35.0179315,50.7973944 35.0309726,51 L39.1780475,51 C42.7203405,51 46.1420033,49.6904762 48.7958703,47.3185085 L53,43.5431267 C51.1155588,41.3754118 48.3606231,40 45.2812896,40" id="Fill-10" fill="#FFDC64" mask="url(#mask-16)"></path>
                        <path d="M69.4707831,15.1020039 C65.8963459,11.2249888 59.8449566,10.9446459 55.9228489,14.4728252 L55,15.3058897 L67.3174691,30 L68.7530118,28.7304926 C72.7840669,25.1863847 73.1061027,19.045919 69.4707831,15.1020039" id="Fill-11" fill="#FFDC64" mask="url(#mask-16)"></path>
                        <path d="M37,49.4285714 C37,49.6211013 37.0149112,49.8105506 37.0314793,50 L38.7876923,50 C42.387929,50 45.8655621,48.7755102 48.5628402,46.5575664 L51,44.5429342 C49.5353846,42.987293 47.3898225,42 44.9907692,42 C40.5770414,42 37,45.3253754 37,49.4285714" id="Fill-12" fill="#FFC850" mask="url(#mask-16)"></path>
                        <path d="M69.4905048,15.2037222 C66.4948514,11.8199642 61.7521316,11.092753 58,13.1358701 L69.9619101,28 C72.798305,24.2600569 72.7043425,18.8348309 69.4905048,15.2037222" id="Fill-13" fill="#FFC850" mask="url(#mask-16)"></path>
                        <polygon id="Fill-14" fill="#FFC850" mask="url(#mask-16)" points="8 41 18 41 18 39 8 39"></polygon>
                        <path d="M55,15.3773505 L59.7394757,21 L62.2113858,18.8275386 C64.103221,17.1733388 65.4050936,14.9894691 66,12.6002505 C62.6579775,11.3893437 58.768839,12.0005012 55.9492135,14.5249894 L55,15.3773505 Z" id="Fill-15" fill="#FFC850" mask="url(#mask-16)"></path>
                        <path d="M62.5377805,18 C64.2474779,16.5122809 65.4399835,14.6214185 66,12.5530527 C63.4091003,11.6896039 60.4953675,11.8295007 58,13.0268965 L62.5377805,18 Z" id="Fill-16" fill="#F5B44B" mask="url(#mask-16)"></path>
                        <path d="M47.6696939,2.53747952 L30.3574515,18.3431355 C29.4705205,19.1489461 28.3183239,19.5951657 27.123815,19.5968002 L1.20590069,19.5951657 C0.538668192,19.5951657 0,20.1378211 0,20.8079679 L0.00162739635,37.7871979 C0.00162739635,38.4573446 0.541922984,39 1.20915549,39 L30.7366349,39 C34.2729671,39 37.6888721,37.7005691 40.3382733,35.346883 L60.7018838,17.1679269 C64.796413,13.531155 65.1235197,7.23014118 61.4309574,3.1831087 C57.8002361,-0.795274613 51.6535601,-1.08294736 47.6696939,2.53747952" id="Fill-17" fill="#FC7A51" mask="url(#mask-16)"></path>
                        <path d="M0,20.1875 L0,36.8125 C0,37.4686658 0.559299191,38 1.25,38 L10,38 L10,19 L1.25,19 C0.559299191,19 0,19.5313342 0,20.1875" id="Fill-18" fill="#FFDC64" mask="url(#mask-16)"></path>
                        <path d="M10,36 L10,38 L1.25,38 C0.559299191,38 0,37.5525606 0,37 L0,36 L10,36 Z" id="Fill-19" fill="#FFC850" mask="url(#mask-16)"></path>
                        <polygon id="Fill-20" fill="#FFC850" mask="url(#mask-16)" points="0 34 10 34 10 32 0 32"></polygon>
                        <polygon id="Fill-21" fill="#FFC850" mask="url(#mask-16)" points="0 29 10 29 10 27 0 27"></polygon>
                        <polygon id="Fill-22" fill="#FFC850" mask="url(#mask-16)" points="0 24 10 24 10 22 0 22"></polygon>
                        <polygon id="Fill-23" fill="#CC6144" mask="url(#mask-16)" points="10 38 12 38 12 19 10 19"></polygon>
                        <path d="M36.2812896,28 C30.6035139,28 26,32.6516921 26,38.3888889 C26,38.5947889 26.0179315,38.7973944 26.0309726,39 L30.1780475,39 C33.7203405,39 37.1420033,37.6904762 39.7958703,35.3185085 L44,31.5414795 C42.1155588,29.3754118 39.3606231,28 36.2812896,28" id="Fill-24" fill="#FFDC64" mask="url(#mask-16)"></path>
                        <path d="M61.4712577,3.10200391 C57.8967032,-0.775011221 51.8451155,-1.05535414 47.9228791,2.4728252 L47,3.30588967 L59.317873,18 L60.7534628,16.7304926 C64.7830479,13.1863847 65.1066965,7.04591905 61.4712577,3.10200391" id="Fill-25" fill="#FFDC64" mask="url(#mask-16)"></path>
                        <path d="M29,37.4285714 C29,37.6211013 29.0149112,37.8105506 29.0314793,38 L30.7876923,38 C34.387929,38 37.8655621,36.7755102 40.5628402,34.5575664 L43,32.5429342 C41.5353846,30.987293 39.3898225,30 36.9907692,30 C32.5770414,30 29,33.3253754 29,37.4285714" id="Fill-26" fill="#FFC850" mask="url(#mask-16)"></path>
                        <path d="M61.4905048,3.20372218 C58.4948514,-0.180035824 53.7521316,-0.907246973 50,1.13587007 L61.9619101,16 C64.798305,12.261706 64.7043425,6.83483091 61.4905048,3.20372218" id="Fill-27" fill="#FFC850" mask="url(#mask-16)"></path>
                    </g>
                    <text id="Delivery-in-4-8-Busi" font-family="Roboto-Light, Roboto" font-size="13" font-weight="300" fill="#535353">
                        <tspan x="2" y="202">Delivery in </tspan>
                        <tspan x="2" y="217">4-8 Business Days</tspan>
                    </text>
                    <text id="Tiger-Socks" font-family="Roboto-Medium, Roboto" font-size="18" font-weight="400" fill="#A9A9A9">
                        <tspan x="2.5859375" y="157">Tiger Socks</tspan>
                    </text>
                    <text id="$12" opacity="0.451879529" font-family="Roboto-Medium, Roboto" font-size="22" font-weight="400" fill="#A9A9A9">
                        <tspan x="0.48828125" y="183">$12</tspan>
                    </text>
                </g>
            </g>
            <g id="Page-1" filter="url(#filter-17)" transform="translate(244.000000, 119.000000)">
                <path d="M14.7806863,14.4688681 L1.29671121,0.236684817 C0.806040661,-0.281235519 -0.0405174835,0.110353185 0.00150754064,0.836071347 L1.15359897,20.7756108 C1.19410958,21.4796833 2.03612448,21.7768185 2.48098397,21.2447301 L4.84687924,18.4130912 C5.21033891,17.9782112 5.88501092,18.0828973 6.1102802,18.6090823 L9.07588393,25.5329216 C9.24587704,25.9300201 9.69376536,26.1086947 10.0757766,25.9315943 L12.4965695,24.811139 C12.8789593,24.6344321 13.0504668,24.1692483 12.8804737,23.7717563 L9.91487,16.8483106 C9.68960072,16.3221256 10.0663115,15.7306102 10.6202089,15.7408426 L14.2275461,15.8081408 C14.9060042,15.8207346 15.2565913,14.9714397 14.7806863,14.4688681" id="Fill-1" fill="#231F20"></path>
                <path d="M14.7806863,14.4688681 L1.29671121,0.236684817 C0.806040661,-0.281235519 -0.0405174835,0.110353185 0.00150754064,0.836071347 L1.15359897,20.7756108 C1.19410958,21.4796833 2.03612448,21.7768185 2.48098397,21.2447301 L4.84687924,18.4130912 C5.21033891,17.9782112 5.88501092,18.0828973 6.1102802,18.6090823 L9.07588393,25.5329216 C9.24587704,25.9300201 9.69376536,26.1086947 10.0757766,25.9315943 L12.4965695,24.811139 C12.8789593,24.6344321 13.0504668,24.1692483 12.8804737,23.7717563 L9.91487,16.8483106 C9.68960072,16.3221256 10.0663115,15.7306102 10.6202089,15.7408426 L14.2275461,15.8081408 C14.9060042,15.8207346 15.2565913,14.9714397 14.7806863,14.4688681 Z" id="Stroke-3" stroke="#FFFFFF" stroke-width="2"></path>
            </g>
        </g>
    </g>
</svg>