<?xml version="1.0" encoding="UTF-8"?>
<svg width="249px" height="151px" viewBox="0 0 249 151" version="1.1" xmlns="http://www.w3.org/2000/svg" xmlns:xlink="http://www.w3.org/1999/xlink">
    <!-- Generator: Sketch 48.2 (47327) - http://www.bohemiancoding.com/sketch -->
    <title>Group</title>
    <desc>Created with Sketch.</desc>
    <defs>
        <polygon id="path-1" points="0 151 249 151 249 0 0 0"></polygon>
    </defs>
    <g id="Desktop" stroke="none" stroke-width="1" fill="none" fill-rule="evenodd" transform="translate(-174.000000, -603.000000)">
        <g id="Group" transform="translate(174.000000, 603.000000)">
            <g id="Page-1">
                <path d="M148.74154,99.2036055 C148.74154,97.560114 150.103987,96.222786 151.778935,96.222786 C151.850077,96.222786 151.919787,96.228408 151.989975,96.2333272 L151.989975,102.173884 C151.919787,102.178803 151.850077,102.184425 151.778935,102.184425 C150.103987,102.184425 148.74154,100.847097 148.74154,99.2036055 M147.295775,99.2036055 C147.295775,101.629255 149.30662,103.603037 151.778935,103.603037 C151.850077,103.603037 151.919549,103.595776 151.989975,103.592496 L151.989975,104.47093 L161.323944,104.47093 L161.323944,93.9360465 L151.989975,93.9360465 L151.989975,94.8147148 C151.919549,94.8114353 151.850077,94.8041736 151.778935,94.8041736 C149.30662,94.8041736 147.295775,96.7779563 147.295775,99.2036055" id="Fill-1" fill="#A63E23"></path>
                <mask id="mask-2" fill="white">
                    <use xlink:href="#path-1"></use>
                </mask>
                <g id="Clip-4"></g>
                <polygon id="Fill-3" fill="#F5F5F5" mask="url(#mask-2)" points="209.545775 105.348837 238.478873 105.348837 238.478873 84.2790698 209.545775 84.2790698"></polygon>
                <polygon id="Fill-5" fill="#CCCCCC" mask="url(#mask-2)" points="209.545775 104.47093 238.478873 104.47093 238.478873 103.593023 209.545775 103.593023"></polygon>
                <polygon id="Fill-6" fill="#CCCCCC" mask="url(#mask-2)" points="209.545775 102.715116 238.478873 102.715116 238.478873 101.837209 209.545775 101.837209"></polygon>
                <polygon id="Fill-7" fill="#CCCCCC" mask="url(#mask-2)" points="209.545775 100.959302 238.478873 100.959302 238.478873 100.081395 209.545775 100.081395"></polygon>
                <polygon id="Fill-8" fill="#CCCCCC" mask="url(#mask-2)" points="209.545775 99.2034884 238.478873 99.2034884 238.478873 98.3255814 209.545775 98.3255814"></polygon>
                <polygon id="Fill-9" fill="#CCCCCC" mask="url(#mask-2)" points="209.545775 97.4476744 238.478873 97.4476744 238.478873 96.5697674 209.545775 96.5697674"></polygon>
                <polygon id="Fill-10" fill="#CCCCCC" mask="url(#mask-2)" points="209.545775 93.9360465 238.478873 93.9360465 238.478873 93.0581395 209.545775 93.0581395"></polygon>
                <polygon id="Fill-11" fill="#CCCCCC" mask="url(#mask-2)" points="209.545775 95.6918605 238.478873 95.6918605 238.478873 94.8139535 209.545775 94.8139535"></polygon>
                <polygon id="Fill-12" fill="#CCCCCC" mask="url(#mask-2)" points="209.545775 92.1802326 238.478873 92.1802326 238.478873 91.3023256 209.545775 91.3023256"></polygon>
                <polygon id="Fill-13" fill="#CCCCCC" mask="url(#mask-2)" points="209.545775 90.4244186 238.478873 90.4244186 238.478873 89.5465116 209.545775 89.5465116"></polygon>
                <polygon id="Fill-14" fill="#CCCCCC" mask="url(#mask-2)" points="209.545775 88.6686047 238.478873 88.6686047 238.478873 87.7906977 209.545775 87.7906977"></polygon>
                <polygon id="Fill-15" fill="#CCCCCC" mask="url(#mask-2)" points="209.545775 87.7906977 238.478873 87.7906977 238.478873 86.9127907 209.545775 86.9127907"></polygon>
                <polygon id="Fill-16" fill="#CCCCCC" mask="url(#mask-2)" points="209.545775 85.1569767 238.478873 85.1569767 238.478873 84.2790698 209.545775 84.2790698"></polygon>
                <polygon id="Fill-17" fill="#EBEBEB" mask="url(#mask-2)" points="209.545775 105.348837 224.450704 105.348837 224.450704 84.2790698 209.545775 84.2790698"></polygon>
                <polygon id="Fill-18" fill="#666666" mask="url(#mask-2)" points="168.338028 99.2034884 216.162777 99.2034884 220.066901 67.5988372 171.46128 67.5988372"></polygon>
                <polygon id="Fill-19" fill="#4D4D4D" mask="url(#mask-2)" points="200.878091 81.6453488 191.88847 81.6453488 191.089339 82.0749737 193.63294 102.922824 187.626761 102.922824 187.626761 104.47093 203.874468 104.47093 203.874468 104.434501 208.669014 104.432151"></polygon>
                <polygon id="Fill-20" fill="#4D4D4D" mask="url(#mask-2)" points="220.066901 67.4820688 219.223551 66.1068083 170.055754 65.8430233 167.461268 98.0661421 168.49911 99.2034884 171.612636 67.4820688"></polygon>
                <polygon id="Fill-21" fill="#E6E6E6" mask="url(#mask-2)" points="190.838785 82.5232558 190.257042 100.081395 192.887324 100.081395"></polygon>
                <path d="M22.7957746,147.049419 C22.7957746,149.231284 24.5898431,151 26.8029832,151 L244.992791,151 C247.205932,151 249,149.231284 249,147.049419 C249,144.867553 247.205932,143.098837 244.992791,143.098837 L26.8029832,143.098837 C24.5898431,143.098837 22.7957746,144.867553 22.7957746,147.049419" id="Fill-22" fill="#E6E6E6" mask="url(#mask-2)"></path>
                <path d="M182.254397,111.494186 L179.360775,127.586711 C179.360775,127.586711 184.569057,123.093576 188.620127,127.5777 C192.671437,132.061593 179.360775,130.791769 176.17803,130.09124 L178.203088,116.078584 L161.323944,118.133499 L162.066314,114.208966 L182.254397,111.494186 Z" id="Fill-23" fill="#40281C" mask="url(#mask-2)"></path>
                <path d="M164.046358,113.25 L159.195172,130.281751 C159.195172,130.281751 164.768734,124.843164 167.916822,129.70948 C171.064437,134.575559 155.538185,133.287535 155.538185,133.287535 L158.552141,118.259325 C158.552141,118.259325 135.330537,124.413429 134.144366,113.308289 C147.434062,115.082922 154.236066,114.323275 154.236066,114.323275 L164.046358,113.25 Z" id="Fill-24" fill="#40281C" mask="url(#mask-2)"></path>
                <polygon id="Fill-25" fill="#4D4D4D" mask="url(#mask-2)" points="45.2962302 137.831395 49.9753521 133.031835 48.2115383 133.012909 45.1375513 136.208064 25.3050696 123.380967 26.6016622 120.852298 25.4851916 120.273256 23.6725352 123.807164"></polygon>
                <polygon id="Fill-26" fill="#4D4D4D" mask="url(#mask-2)" points="70.6874951 139.587209 72.7711268 137.520623 59.0730683 122.906977 56.9894366 124.973563"></polygon>
                <path d="M49.7852687,137.300804 L71.3296134,115.994113 C72.0636856,115.268078 72.084922,114.069153 71.3770414,113.316256 L68.5580251,110.317734 C67.8501445,109.564836 66.6811978,109.542813 65.9471256,110.268847 L44.4027809,131.575538 C43.6687088,132.301572 43.6474724,133.500497 44.3553529,134.253395 L47.1743693,137.252159 C47.8822498,138.005057 49.0511966,138.026838 49.7852687,137.300804" id="Fill-27" fill="#666666" mask="url(#mask-2)"></path>
                <polygon id="Fill-28" fill="#4D4D4D" mask="url(#mask-2)" points="66.3882461 147.488372 82.415493 132.352416 80.0310121 129.930233 64.0035211 145.066189"></polygon>
                <path d="M22.2050504,127.5086 C24.1221035,129.51506 27.2876585,129.573232 29.275687,127.638405 L38.801409,118.368112 C40.7894375,116.433285 40.8470753,113.238381 38.9302605,111.231921 L34.7843862,106.892563 C32.8675713,104.886103 29.7020163,104.827931 27.7139878,106.762757 L18.1880276,116.033291 C16.1999991,117.967878 16.1423613,121.162782 18.0591761,123.169242 L22.2050504,127.5086 Z" id="Fill-29" fill="#808080" mask="url(#mask-2)"></path>
                <path d="M24.8353321,124.874879 C26.752147,126.881339 29.917702,126.939511 31.9057305,125.004684 L41.4316907,115.734391 C43.4197192,113.799564 43.477357,110.60466 41.5605422,108.5982 L37.4146679,104.258842 C35.497853,102.252382 32.332298,102.19421 30.3442695,104.129036 L20.8183093,113.39933 C18.8302808,115.334157 18.772643,118.529061 20.6894578,120.535521 L24.8353321,124.874879 Z" id="Fill-30" fill="#666666" mask="url(#mask-2)"></path>
                <polygon id="Fill-31" fill="#8A6038" mask="url(#mask-2)" points="243.739437 104.47093 243.739437 107.96491 124.5 107.982558 124.5 104.488579"></polygon>
                <polygon id="Fill-32" fill="#755230" mask="url(#mask-2)" points="124.5 107.982558 170.96831 107.982558 170.96831 104.47093 124.5 104.47093"></polygon>
                <polygon id="Fill-33" fill="#8A6038" mask="url(#mask-2)" points="128.007042 146.610465 239.355634 146.610465 239.355634 107.982558 128.007042 107.982558"></polygon>
                <polygon id="Fill-34" fill="#755230" mask="url(#mask-2)" points="128.007042 146.610465 174.475352 146.610465 174.475352 107.982558 128.007042 107.982558"></polygon>
                <polygon id="Fill-35" fill="#D9D9D9" mask="url(#mask-2)" points="128.007042 129.052326 175.238627 113.77738 239.355634 113.77738 239.355634 107.982558 128.007042 107.982558"></polygon>
                <path d="M94.9195799,12.772529 C95.3555817,12.6564265 95.6434851,13.0779497 95.7413486,13.4141732 C95.6183676,13.1061461 95.4787996,12.5431673 96.001054,12.3483994 C96.6031631,12.1240135 97.0031474,12.8398211 97.1263653,13.1014072 L97.1327632,13.0992747 C97.0467476,12.8412428 96.8652381,12.1353868 97.3761186,11.9531769 C97.8829707,11.7723887 98.1950438,12.4443617 98.2974094,12.7128191 C98.2012047,12.4161653 98.0054777,11.6209815 98.628913,11.4262136 C99.0954824,11.280967 99.3582683,12.3623791 99.3582683,12.3623791 C103.212382,34.6772841 109.59507,57.9418605 109.59507,57.9418605 L103.879655,57.9148489 C97.5602346,37.7658482 95.2968162,15.9184335 94.7840402,13.9745456 C94.7840402,13.9745456 94.500165,12.907824 94.9195799,12.772529" id="Fill-36" fill="#FDDCBE" mask="url(#mask-2)"></path>
                <path d="M131.378618,93.6589536 C130.038197,89.2930893 125.404072,96.2869358 125.404072,96.2869358 C125.404072,96.2869358 126.700377,90.4340251 125.17109,88.4689488 C123.706188,86.5866176 120.089601,89.1512407 119.132634,89.7975976 L79.8018319,98.3714014 L81.3368426,104.624562 L76.8093124,104.09783 C76.8093124,104.09783 73.5065475,111.017206 77.0182093,111.466157 C80.529871,111.914872 78.1943274,106.827471 78.1943274,106.827471 C78.1943274,106.827471 81.5440702,108.668193 83.9635541,107.966988 C85.8503032,107.420398 84.3505857,102.017384 84.0916107,100.347353 C109.934732,98.7818167 121.982789,91.8416363 122.340489,91.5740152 C122.340489,91.5740152 122.986019,97.8756404 123.670418,101.019006 C123.670418,101.019006 132.71904,98.0250543 131.378618,93.6589536" id="Fill-37" fill="#3B2612" mask="url(#mask-2)"></path>
                <path d="M114.855634,62.9610959 C114.855634,62.9610959 111.013229,15.3407009 77.0425476,37.4696335 C77.0425476,37.4696335 66.99206,48.0656622 71.1478328,71.961117 C108.285421,72.5641275 114.855634,62.9610959 114.855634,62.9610959" id="Fill-38" fill="#FDDCBE" mask="url(#mask-2)"></path>
                <path d="M106.697513,14.0465116 C106.697513,14.0465116 122.778472,40.6406698 79.1730805,42.9416635 L77.9211224,53.1114549 C77.9211224,53.1114549 73.3332056,49.851555 72.9317009,54.295075 C72.5311404,58.7385949 77.4792548,56.3563421 77.4792548,56.3563421 C77.4792548,56.3563421 74.8278132,68.2158959 70.1070057,71.9883721 C70.1070057,71.9883721 48.3377099,30.271424 70.3265232,30.797345 C70.3265232,30.797345 69.6776482,22.6332976 81.415228,20.066603 C93.580277,17.4064961 103.920734,30.8469107 106.697513,14.0465116" id="Fill-39" fill="#3B2612" mask="url(#mask-2)"></path>
                <path d="M101.509077,8.94225134 L28.1058378,35.132151 C26.6828935,35.6397109 25.9505883,37.1789697 26.4697183,38.5699632 L26.4886134,38.620885 C27.0079856,40.0121153 28.5823328,40.7280992 30.0050348,40.2205394 L103.408274,14.0306397 C104.830976,13.5230798 105.563523,11.983821 105.044393,10.5928275 L105.025256,10.5419057 C104.506126,9.15067537 102.931779,8.43469148 101.509077,8.94225134" id="Fill-40" fill="#8A6038" mask="url(#mask-2)"></path>
                <path d="M19.6841692,15.8023256 C19.6841692,15.8023256 33.2212397,30.0934905 36.8239437,59.5524072 C36.8239437,59.5524072 29.5627596,70.4270706 16.3543611,66.8920289 C16.3543611,66.8920289 2.19178457,45.6145113 0,22.8601788 C0,22.8601788 11.9241124,23.6732619 19.6841692,15.8023256" id="Fill-41" fill="#333333" mask="url(#mask-2)"></path>
                <path d="M10.5049561,21.7641171 C15.8098349,19.7528531 19.7250308,17.0257645 19.2496374,15.6723635 C18.774244,14.319204 14.0886551,14.8526913 8.7837763,16.8639554 C3.47889746,18.8749779 -0.436298402,21.6023079 0.039094991,22.9554674 C0.514255918,24.3086269 5.20007725,23.7753812 10.5049561,21.7641171" id="Fill-42" fill="#4D4D4D" mask="url(#mask-2)"></path>
                <path d="M114.693538,63.2093023 L119.239437,89.7147349 C119.239437,89.7147349 103.490496,96.3686356 79.8447514,98.3255814 L71.0176056,72.1573077 C71.0176056,72.1573077 100.949073,70.8801405 114.693538,63.2093023" id="Fill-43" fill="#F5F5F5" mask="url(#mask-2)"></path>
                <path d="M106.582072,68.4767442 L107.841549,70.0086173 L106.932184,72.2579499 C106.932184,72.2579499 107.460273,85.5238894 91.2876898,87.7906977 L86.7992958,83.9352803 L90.8238769,80.069569 C104.204818,81.236129 104.416151,72.9462035 104.416151,72.9462035 L102.483719,71.113414 L103.012539,69.5681349 L106.582072,68.4767442 Z" id="Fill-44" fill="#E6E6E6" mask="url(#mask-2)"></path>
                <path d="M106.582072,68.4767442 L107.841549,70.0358215 L106.932184,72.3250996 C106.932184,72.3250996 107.460273,84.6057266 91.2876898,86.9127907 L86.7992958,82.9889057 L90.8238769,79.054544 C104.204818,80.2418208 104.416151,73.0255758 104.416151,73.0255758 L102.483719,71.1602381 L103.012539,69.5875167 L106.582072,68.4767442 Z" id="Fill-45" fill="#3B2612" mask="url(#mask-2)"></path>
                <path d="M41.2077465,79.9202616 C41.2971761,79.9145552 41.3844137,79.9044593 41.4663908,79.8895349 C41.3861673,79.8961192 41.2989296,79.9062151 41.2077465,79.9202616" id="Fill-46" fill="#FDDCBE" mask="url(#mask-2)"></path>
                <path d="M61.3732394,27.2151163 C61.4030493,27.302907 61.4346127,27.3854302 61.4657377,27.4591744 C61.44075,27.3797238 61.409625,27.2976395 61.3732394,27.2151163" id="Fill-47" fill="#FDDCBE" mask="url(#mask-2)"></path>
                <path d="M69.2640845,66.2964376 C69.755272,67.9046809 70.2718227,69.5133701 70.8164543,71.1104651 L76.278169,71.0284142 C76.278169,71.0284142 75.5698083,68.7809315 74.4674106,64.9651163 L69.2640845,66.2964376 Z" id="Fill-48" fill="#F5F5F5" mask="url(#mask-2)"></path>
                <path d="M65.1697259,25.5184435 C65.1697259,25.5184435 64.8838831,24.4415815 64.4179592,24.5966724 C63.7952982,24.8036974 64.0080129,25.5955147 64.1104399,25.8905193 C64.0022961,25.6239717 63.675006,24.9576026 63.1693023,25.1487391 C62.6595493,25.3412984 62.8563044,26.0441874 62.9477741,26.3005379 L62.9415809,26.3029093 C62.8124752,26.043476 62.3958592,25.3351327 61.795351,25.5718004 C61.3425283,25.7503684 61.3980295,26.1969068 61.5054587,26.5113572 C61.5252295,26.5559399 61.5421419,26.6002854 61.5557194,26.6434453 C61.5388071,26.6033683 61.5216565,26.5587856 61.5054587,26.5113572 C61.3713508,26.2106611 61.0967034,25.9090164 60.7170089,26.0178646 C60.2980109,26.1615727 60.6048155,27.2232576 60.6048155,27.2232576 C61.1121866,28.9942343 63.4751542,47.3791446 69.0514719,65.8430233 L74.5246479,64.426811 C72.1926466,56.2658051 68.1825096,41.352417 65.1697259,25.5184435" id="Fill-49" fill="#FDDCBE" mask="url(#mask-2)"></path>
                <path d="M91.1348996,52.9399682 C91.2928096,54.1481407 91.0499857,55.2052917 90.5924561,55.3011821 C90.1347403,55.3968369 89.6358711,54.4949484 89.4777748,53.2867759 C89.3198648,52.0786035 89.5626887,51.0214525 90.0204045,50.9255621 C90.4779341,50.8299072 90.9769895,51.7317958 91.1348996,52.9399682" id="Fill-50" fill="#3B2612" mask="url(#mask-2)"></path>
                <path d="M106.91659,48.5504342 C107.0745,49.7586063 106.831676,50.8157568 106.374147,50.9116472 C105.916431,51.007302 105.417377,50.1054138 105.259467,48.8972418 C105.101557,47.6890698 105.34438,46.6319192 105.80191,46.5360288 C106.259625,46.440374 106.75868,47.3420266 106.91659,48.5504342" id="Fill-51" fill="#3B2612" mask="url(#mask-2)"></path>
                <polygon id="Fill-52" fill="#3B2612" mask="url(#mask-2)" points="92.3858879 50.0406977 82.415493 48.2160782 83.1803849 46.5290698 92.9366197 48.7820439"></polygon>
                <polygon id="Fill-53" fill="#3B2612" mask="url(#mask-2)" points="103.813212 47.4069767 109.59507 40.4017921 107.923171 39.505814 102.580986 46.7258295"></polygon>
                <polygon id="Fill-54" fill="#EB7D86" mask="url(#mask-2)" points="96.443662 56.6621455 96.443662 64.9651163 106.088028 60.4880722 105.484595 56.1860465"></polygon>
                <path d="M134.235082,14.0705644 C136.377958,11.9640454 136.46053,8.46337797 134.419752,6.25197007 C134.247786,6.06550089 134.063116,5.89991238 133.873741,5.743793 C133.883622,4.31686676 133.381837,2.88435616 132.353097,1.76966867 C130.248802,-0.510936778 126.751133,-0.598829802 124.541447,1.57324475 C123.745132,2.35602682 123.229233,3.32673485 122.987633,4.35377212 C122.101218,4.45089148 121.236446,4.82237305 120.540817,5.50609336 C118.863733,7.15469455 118.79904,9.89418898 120.396375,11.624856 C120.841464,12.1075393 121.372419,12.4467286 121.937956,12.6693748 C122.049228,13.6107042 122.429389,14.5253258 123.111609,15.264647 C124.786576,17.0798079 127.560622,17.1570178 129.332276,15.4518445 C131.027944,15.8551327 132.880759,15.4018281 134.235082,14.0705644" id="Fill-55" fill="#D5E3DC" mask="url(#mask-2)"></path>
                <polygon id="Fill-56" fill="#D5E3DC" mask="url(#mask-2)" points="123.343148 9.65697674 114.855634 17.5581395 125.376761 12.3227257"></polygon>
                <path d="M35.2994443,14.2076483 C36.0547727,16.3402197 38.4527189,17.4759862 40.6554319,16.7447099 C40.7420928,16.7158688 40.824076,16.6803538 40.9077825,16.6469839 C41.8098436,18.107153 43.6713293,18.8103033 45.400608,18.2361036 C47.3514628,17.5882519 48.4024723,15.5567434 47.7931379,13.662528 C50.1866526,12.7231669 51.4343724,10.1291382 50.5862282,7.73509021 C49.782153,5.46474901 47.3758362,4.17214424 45.0096492,4.62454399 C43.7378022,3.59365415 41.9595306,3.20942423 40.2760443,3.76836912 C37.8554481,4.57210567 36.508019,7.02812622 37.1111985,9.38832766 C35.4444535,10.3591518 34.6428403,12.3541918 35.2994443,14.2076483" id="Fill-57" fill="#D5E3DC" mask="url(#mask-2)"></path>
                <polygon id="Fill-58" fill="#D5E3DC" mask="url(#mask-2)" points="46.4683099 14.881431 56.1126761 19.3139535 48.2462538 12.2906977"></polygon>
                <path d="M46.3439723,118.517442 L45.5915493,118.370432 C45.6327103,118.156557 46.6415075,113.073589 50.3852764,107.91095 C53.8465633,103.13765 60.3878687,97.4476744 71.8943662,97.4476744 L71.8943662,98.2201851 C60.7093949,98.2201851 54.3602526,103.73778 51.0038674,108.366917 C47.3605313,113.391556 46.3536157,118.466463 46.3439723,118.517442" id="Fill-59" fill="#CBDED5" mask="url(#mask-2)"></path>
                <path d="M47.0406362,104.47093 L46.4683099,103.935865 C46.5445126,103.836779 54.213363,94.0153154 65.7524379,93.9360465 L65.7570423,94.7637964 C54.5702037,94.8405247 47.1147669,104.374639 47.0406362,104.47093" id="Fill-60" fill="#CBDED5" mask="url(#mask-2)"></path>
                <path d="M58.6344106,111.494186 L57.8661972,111.387871 C57.9043219,111.131573 58.9010454,105.082845 67.2915844,102.715116 L67.5105634,103.429367 C59.618267,105.656944 58.6708673,111.257093 58.6344106,111.494186" id="Fill-61" fill="#CBDED5" mask="url(#mask-2)"></path>
            </g>
        </g>
    </g>
</svg>